<?xml version="1.0" encoding="utf-8"?>
<!-- Generator: Adobe Illustrator 19.0.0, SVG Export Plug-In . SVG Version: 6.00 Build 0)  -->
<svg version="1.1" id="Logo" xmlns="http://www.w3.org/2000/svg" xmlns:xlink="http://www.w3.org/1999/xlink" x="0px" y="0px"
	 viewBox="39 52.9 689.1 689.1" style="enable-background:new 39 52.9 689.1 689.1;" xml:space="preserve">
<style type="text/css">
	.st0{fill:none;stroke:#646461;stroke-width:4;stroke-miterlimit:10;}
	.st1{fill:none;stroke:#646461;stroke-width:14;stroke-miterlimit:10;}
	.st2{fill:none;stroke:#646461;stroke-width:6;stroke-miterlimit:10;stroke-dasharray:11.981,11.981;}

	.st0:hover{stroke:#a58f4e;}
	.st1:hover{stroke:#a58f4e;}
	.st2:hover{stroke:#a58f4e;}

</style>
<g id="C">
	<path class="st0 logo" d="M502.3,477.1c-14.7,43.3-47.4,71.6-87.8,80.5c-9,2-18.5,3-28.2,3c-11.5,0-22.5-1.7-33.1-4.8
		c-20.3-6.1-38.5-17.5-52.9-32.7c-22-23-36-54-36-89c0-36,14-67,36-90c14.5-15.1,32.7-26.6,52.9-32.7v-51.5
		c-34.2,7-64.7,24.6-87.9,48.6c-30,32-50,76-50,125.5c0,48.5,20,92.5,50,124.5c30.5,32,73.5,52,121,52c81.5,0,145.5-54,165.5-133.5
		h-49.5V477.1z M499.3,385.6h50c-17.6-69.5-68.4-116.5-134.8-126.8v50.7C453.2,317.6,484.3,343,499.3,385.6z"/>
</g>
<g id="T">
	<path class="st0 logo" d="M414.5,557.6V309.5v-50.7v-12.6h128v-61.9H224.7v61.9h128.6V260v51.5v244.3"/>
</g>
<circle id="Outer" class="st1" cx="383.6" cy="397.5" r="337.6"/>
<g id="Dotted">
	<circle class="st2 logo" cx="383.6" cy="397.5" r="308.9"/>
</g>
</svg>
